inDegrees=no
num_controls=7
num_derivatives=13
num_iterations=98
num_multipliers=7
num_parameters=0
num_slacks=7
num_states=26
objective=0.444935
objective_accelerations=0.058479
objective_balance=0.003493
objective_effort=0.023151
objective_height=0.354343
objective_ligament=0.005470
solver_duration=1434.761121
status=Solve_Succeeded
success=true
DataType=double
version=3
OpenSimVersion=4.5
endheader
time	/jointset/ground_pelvis/pelvis_tilt/value	/jointset/ground_pelvis/pelvis_tx/value	/jointset/ground_pelvis/pelvis_ty/value	/jointset/hip_l/hip_flexion_l/value	/jointset/hip_l/hip_adduction_l/value	/jointset/hip_l/hip_rotation_l/value	/jointset/back/lumbar_extension/value	/jointset/patellofemoral_l/patellar_flexion_l/value	/jointset/knee_l/knee_flexion_l/value	/jointset/knee_l/knee_adduction_l/value	/jointset/knee_l/knee_rotation_l/value	/jointset/ankle_l/ankle_angle_l/value	/jointset/subtalar_l/subtalar_angle_l/value	/jointset/ground_pelvis/pelvis_tilt/speed	/jointset/ground_pelvis/pelvis_tx/speed	/jointset/ground_pelvis/pelvis_ty/speed	/jointset/hip_l/hip_flexion_l/speed	/jointset/hip_l/hip_adduction_l/speed	/jointset/hip_l/hip_rotation_l/speed	/jointset/back/lumbar_extension/speed	/jointset/patellofemoral_l/patellar_flexion_l/speed	/jointset/knee_l/knee_flexion_l/speed	/jointset/knee_l/knee_adduction_l/speed	/jointset/knee_l/knee_rotation_l/speed	/jointset/ankle_l/ankle_angle_l/speed	/jointset/subtalar_l/subtalar_angle_l/speed	/forceset/tau_hip_flexion_l	/forceset/tau_hip_adduction_l	/forceset/tau_hip_rotation_l	/forceset/tau_knee_flexion_l	/forceset/tau_ankle_angle_l	/forceset/tau_subtalar_angle_l	/forceset/tau_lumbar_extension	lambda_cid13_p0	lambda_cid13_p1	lambda_cid13_p2	lambda_cid13_p3	lambda_cid13_p4	lambda_cid13_p5	lambda_cid14_p0	/jointset/ground_pelvis/pelvis_tilt/accel	/jointset/ground_pelvis/pelvis_tx/accel	/jointset/ground_pelvis/pelvis_ty/accel	/jointset/hip_l/hip_flexion_l/accel	/jointset/hip_l/hip_adduction_l/accel	/jointset/hip_l/hip_rotation_l/accel	/jointset/back/lumbar_extension/accel	/jointset/patellofemoral_l/patellar_flexion_l/accel	/jointset/knee_l/knee_flexion_l/accel	/jointset/knee_l/knee_adduction_l/accel	/jointset/knee_l/knee_rotation_l/accel	/jointset/ankle_l/ankle_angle_l/accel	/jointset/subtalar_l/subtalar_angle_l/accel	gamma_cid13_p0	gamma_cid13_p1	gamma_cid13_p2	gamma_cid13_p3	gamma_cid13_p4	gamma_cid13_p5	gamma_cid14_p0
0	-0.0385152746733282	0.06846711268392107	0.8959101965097291	0.1955287580552426	-0.3224290033525331	-0.4749242853386857	-0.1379045077516729	0.07015288079084588	0.07015288079084844	-0.174532065677826	-0.1098140949956692	-0.06701059314715049	0.003269397805489478	0	0	0	0	0	0	0	0	0	0	0	0	0	0.1041183139051655	-0.09966247838035576	-0.02806328623440512	-0.2297420237754065	0.1845209189079593	-0.01075277565963503	-0.04971055712364987	23.81544839545916	-2.156917433866592	3.042813662082117	0.8334421854651646	-514.8994346788825	-83.12257675017837	-39.70530112264076	-4.378395213219824	-1.863357797918558	-0.9781081404131776	12.63918707109226	-2.090178240513417	3.373228101858467	-2.856092311032176	10.45108185497229	10.45108185497291	0.764393049535253	-0.8881057585041165	2.435406514054877	-0.9694227353382524	-2.776438057380597e-08	1.324637708518583e-07	1.167283581690421e-07	1.771596361345189e-08	-2.67989088907367e-08	-4.045913980737721e-08	-3.711687590245775e-09
0.01	-0.03872388773267266	0.06837521370291724	0.8958627096874128	0.196139994633754	-0.3225319707754248	-0.4747549553733587	-0.1380530972837972	0.07066078754082379	0.07066078754082207	-0.1744974632474859	-0.1098523455998471	-0.06689361489918053	0.003219969675190013	-0.04152030356826109	-0.01829496484460432	-0.00946806273133031	0.1216971976692489	-0.0204993735209524	0.03371699197438522	-0.02944252436601935	0.1011465440316102	0.1011465440316177	0.006886877774361896	-0.007618860338494639	0.02330211950210179	-0.009834193807964603	0.09944783799049088	-0.09812824550285738	-0.02717679212936192	-0.2239026115575762	0.176719690115163	-0.008135167284475157	-0.04574939286541315	21.38189993054212	-2.911250818955806	3.212879462969692	1.743171236937056	-515.7275351101466	-84.56130674232391	-39.71563173238719	-4.008512827527087	-1.799837580976198	-0.9267654395156895	11.85245666083801	-2.015733450764751	3.348572636810383	-2.94702519056169	9.881220525273386	9.881220525273818	0.6458299603499724	-0.6940770025528863	2.263587065535325	-0.9827371673383515	-6.657083265706809e-08	1.594398557903901e-07	2.026353073606932e-07	5.154132185747074e-08	-2.486446453388631e-07	-9.575633033709625e-08	-1.039681392412826e-08
0.02	-0.03934163680748001	0.06810291072281859	0.8957214202177781	0.1979516972981565	-0.3228371152421006	-0.4742529279099674	-0.1384878505978168	0.07216711570070124	0.07216711570070208	-0.1743949930754694	-0.1099658449736493	-0.06654642097673957	0.003073735714048287	-0.08182720309241612	-0.03608079981896478	-0.01876052946363888	0.2400932171783803	-0.04043540875705007	0.06653949961203957	-0.05723275637903525	0.1996842819839376	0.1996842819839358	0.01357354830724634	-0.01504975391821757	0.04604313489410194	-0.01936116616844559	0.09477736207576577	-0.09659401262536337	-0.02629029802416017	-0.2180631993398402	0.1689184613223289	-0.005517558909342268	-0.04178822860717683	19.01304648094489	-3.677838999084657	3.385958912887111	2.490310332236469	-515.6107342566426	-85.83412051112953	-39.74606625987357	-4.135714404398651	-1.761531823869736	-0.9429889406088428	11.97895143906866	-1.977510583542616	3.194331234512289	-2.525633840431483	9.929320639115717	9.929320639112992	0.7243516012394412	-0.8505124067497775	2.323185692034566	-0.9079784458416779	-1.053772847403302e-07	1.86415940728922e-07	2.885422565523442e-07	8.536668010148959e-08	-4.704903817869895e-07	-1.510535208668153e-07	-1.708194025801074e-08
0.03	-0.04035713902536759	0.06765553294541961	0.8954877930804953	0.2009317928056466	-0.3233385331026631	-0.4734272339909025	-0.1391918121680802	0.07464615417523014	0.07464615417523035	-0.1742261930412118	-0.1101528643546998	-0.06597420050228847	0.002834273325254438	-0.1210806211090838	-0.05328327185912	-0.02795535952324176	0.3553562808697242	-0.05972813749749922	0.09846562528823548	-0.08330858419883445	0.2956598182712268	0.2956598182712042	0.02016997663483837	-0.02229082739105126	0.06832570703308372	-0.02844372737158762	0.0908426255669032	-0.09430792681136146	-0.02571748726951727	-0.2150706636448743	0.1657450794798582	-0.004765329388744565	-0.03840670291971349	18.05711606606894	-3.876972279082772	3.463185936494825	2.38687749711066	-515.5769458649627	-85.66346477917124	-39.79539455790047	-3.791274518006047	-1.682865113739682	-0.9063942626162894	11.21452372483124	-1.887203204835389	3.171666832719642	-2.610911231528918	9.362134369460094	9.362134369458737	0.6248812764497725	-0.6513757713368276	2.169504624669835	-0.8953193001832609	-1.348722729025934e-07	2.096432660499979e-07	3.445927106108181e-07	1.153918037787758e-07	-6.449802411118803e-07	-1.882422888360745e-07	-2.027789653521295e-08
0.04	-0.04175939922696429	0.06703947840368894	0.8951624847978202	0.2050474269281778	-0.3240292880877371	-0.472286296095363	-0.1401490028122979	0.07807104086180744	0.07807104086180772	-0.1739919101580739	-0.1104103886612514	-0.06518141197647932	0.002506600455902567	-0.1591787998339488	-0.06981615268530045	-0.03709675854209882	0.467200940187633	-0.07830283365952244	0.1295882949062851	-0.1078785711696264	0.3888539243954974	0.3888539243954686	0.02667011807965278	-0.02915073901535097	0.09015674516565887	-0.03700326228004405	0.08690788905796934	-0.09202184099736009	-0.02514467651481011	-0.212078127949966	0.1625716976373661	-0.004013099868159751	-0.03502517723228988	17.16008884952771	-4.086823890750168	3.542584691842131	2.131439438884686	-514.6851078728954	-85.33726333507188	-39.86202578587201	-3.904666546038099	-1.627613581074747	-0.9323027324596824	11.2952705643816	-1.833904067857489	3.033640022883033	-2.224465670630022	9.373034606511975	9.373034606512165	0.7050942246837945	-0.7742800370429791	2.232878890753263	-0.8033731869046088	-1.641752721180319e-07	2.327932973583429e-07	4.000275668314946e-07	1.453385721041706e-07	-8.184936905991787e-07	-2.250576872680047e-07	-2.340191116176196e-08
0.05	-0.043537592585822	0.06626134843418573	0.8947457289990675	0.210265970013252	-0.3249022282712478	-0.4708384611399879	-0.141343710200988	0.08241499981658	0.08241499981658135	-0.1736929751347255	-0.1107352875446177	-0.06417231028340388	0.002096047237024152	-0.1962616578035371	-0.08570388543295376	-0.04626428127616351	0.5759505597555564	-0.09616395942422835	0.1598422210929184	-0.1308265944765848	0.4794823096978116	0.4794823096978024	0.03308266487366963	-0.03577143439358493	0.1115787861104142	-0.04502507418510916	0.0824268026343658	-0.08837176118075832	-0.02448472825746145	-0.2089976589225121	0.159414652012073	-0.004142068726096414	-0.03132486856839198	16.22693103336327	-3.941010769053327	3.603392203974596	2.12631964637104	-513.8468376111558	-84.16361756404763	-39.94396521443674	-3.580374621355162	-1.553430444464181	-0.9106241549058662	10.5812154582282	-1.744096996811967	3.000744419792811	-2.29452384696392	8.839411668585209	8.839411668588049	0.6042871000176376	-0.5972735708144323	2.084143121469763	-0.7893205471500772	-1.827915144386527e-07	2.307482019530357e-07	4.40624135195847e-07	1.623842140324599e-07	-9.267419947594417e-07	-2.540320605995234e-07	-2.713205212135854e-08
